<?xml version="1.0" encoding="UTF-8"?><svg id="Calque_1" xmlns="http://www.w3.org/2000/svg" viewBox="0 0 151.64 144.12"><defs><style>.cls-1{fill:#31383f;}.cls-2{fill:#e8c73c;}</style></defs><path class="cls-1" d="M50.72,140.63c.3-1.5,1.8-2.5,3.3-2.2,1.5,.3,2.5,1.8,2.2,3.3s-1.8,2.5-3.3,2.2c-1.6-.3-2.5-1.8-2.2-3.3Z"/><path class="cls-1" d="M41.52,131.13c.6-1.4,2.3-2.1,3.7-1.5,1.4,.6,2.1,2.3,1.5,3.7s-2.3,2.1-3.7,1.5c-1.5-.7-2.1-2.3-1.5-3.7Z"/><path class="cls-1" d="M78.12,141.43c-.3-1.5,.6-3,2.1-3.4,1.5-.3,3,.6,3.4,2.1s-.6,3-2.1,3.4c-1.6,.4-3.1-.6-3.4-2.1Z"/><path class="cls-1" d="M65.62,136.83c-.1-1.6,1.2-2.9,2.7-2.9,1.6-.1,2.9,1.2,2.9,2.7,.1,1.6-1.2,2.9-2.7,2.9-1.5,.1-2.8-1.1-2.9-2.7Z"/><path class="cls-1" d="M122.52,110.63c-1.4-.7-1.9-2.4-1.2-3.8,.7-1.4,2.4-1.9,3.8-1.2,1.4,.7,1.9,2.4,1.2,3.8-.7,1.4-2.4,1.9-3.8,1.2Z"/><path class="cls-1" d="M130.32,84.13c-1.6-.1-2.8-1.4-2.7-2.9,.1-1.6,1.4-2.8,2.9-2.7,1.6,.1,2.8,1.4,2.7,2.9-.1,1.6-1.4,2.8-2.9,2.7Z"/><path class="cls-1" d="M122.62,94.73c-1.5-.3-2.5-1.9-2.1-3.4,.3-1.5,1.9-2.5,3.4-2.1s2.5,1.9,2.1,3.4-1.9,2.5-3.4,2.1Z"/><path class="cls-1" d="M117.72,88.13c-1.5-.2-2.6-1.6-2.4-3.1s1.6-2.6,3.1-2.5c1.5,.2,2.6,1.6,2.4,3.1s-1.6,2.6-3.1,2.5Z"/><path class="cls-1" d="M126.22,56.93c-1.4,.6-3.1-.1-3.7-1.5s.1-3.1,1.5-3.7c1.4-.6,3.1,.1,3.7,1.5,.6,1.5-.1,3.1-1.5,3.7Z"/><path class="cls-1" d="M124.32,69.83c-1.5,.3-3-.7-3.3-2.2s.6-3,2.2-3.3c1.5-.3,3,.6,3.3,2.2,.3,1.4-.7,2.9-2.2,3.3Z"/><path class="cls-1" d="M117.12,65.73c-1.5,.5-3.1-.3-3.5-1.8-.5-1.5,.3-3.1,1.8-3.5,1.5-.5,3.1,.3,3.5,1.8,.5,1.4-.3,3-1.8,3.5Z"/><path class="cls-1" d="M49.62,17.33c.5,1.5-.3,3.1-1.8,3.5-1.5,.5-3.1-.3-3.5-1.8-.5-1.5,.3-3.1,1.8-3.5,1.5-.5,3.1,.3,3.5,1.8Z"/><polygon class="cls-1" points="66.52 79.03 46.82 18.23 47.22 18.13 66.92 78.93 66.52 79.03"/><path class="cls-1" d="M67.82,40.93c0,1.6-1.3,2.8-2.8,2.8-1.6,0-2.8-1.3-2.8-2.8,0-1.6,1.3-2.8,2.8-2.8,1.6,0,2.8,1.2,2.8,2.8Z"/><polygon class="cls-1" points="66.52 78.93 64.72 40.43 65.12 40.43 66.92 78.93 66.52 78.93"/><path class="cls-1" d="M57.72,27.53c.3,1.5-.6,3-2.1,3.4-1.5,.3-3-.6-3.4-2.1-.3-1.5,.6-3,2.1-3.4,1.6-.3,3.1,.6,3.4,2.1Z"/><polygon class="cls-1" points="66.52 79.03 54.82 28.23 55.22 28.13 66.92 78.93 66.52 79.03"/><path class="cls-1" d="M25.22,30.33c1.1,1.1,1,2.9-.1,4s-2.9,1-4-.1-1-2.9,.1-4c1.2-1.1,2.9-1,4,.1Z"/><polygon class="cls-1" points="66.62 79.13 23.02 32.33 23.32 32.13 66.92 78.83 66.62 79.13"/><path class="cls-1" d="M38.22,28.03c.8,1.3,.4,3.1-.9,3.9-1.3,.8-3,.4-3.9-.9-.8-1.3-.4-3.1,.9-3.9,1.4-.8,3.1-.4,3.9,.9Z"/><polygon class="cls-1" points="66.52 79.03 35.72 29.63 36.02 29.43 66.92 78.83 66.52 79.03"/><path class="cls-1" d="M53.72,44.33c.7,1.4,0,3.1-1.4,3.7-1.4,.7-3.1,.1-3.7-1.4-.7-1.4,0-3.1,1.4-3.7,1.3-.6,3,0,3.7,1.4Z"/><polygon class="cls-1" points="66.52 79.03 50.92 45.63 51.32 45.43 66.92 78.83 66.52 79.03"/><path class="cls-1" d="M36.92,36.13c1,1.2,.7,3-.5,4s-3,.7-4-.5-.7-3,.5-3.9c1.2-1,3-.8,4,.4Z"/><polygon class="cls-1" points="66.62 79.03 34.52 38.03 34.82 37.83 66.92 78.83 66.62 79.03"/><path class="cls-1" d="M8.52,52.43c1.4,.6,2.1,2.2,1.6,3.7-.6,1.4-2.2,2.1-3.7,1.6-1.4-.6-2.1-2.2-1.5-3.7,.6-1.5,2.2-2.2,3.6-1.6Z"/><rect class="cls-1" x="36.91" y="35.03" width=".4" height="63.9" transform="translate(-38.89 76.3) rotate(-68)"/><path class="cls-1" d="M19.42,44.83c1.3,.8,1.7,2.6,.8,3.9-.8,1.3-2.6,1.7-3.9,.8-1.3-.8-1.7-2.6-.8-3.9,.8-1.2,2.6-1.6,3.9-.8Z"/><polygon class="cls-1" points="66.62 79.13 17.82 47.43 18.02 47.03 66.82 78.83 66.62 79.13"/><path class="cls-1" d="M40.32,53.13c1.2,1,1.3,2.8,.3,4-1,1.2-2.8,1.3-4,.3s-1.3-2.8-.3-4c1-1.2,2.8-1.3,4-.3Z"/><polygon class="cls-1" points="66.62 79.13 38.32 55.43 38.62 55.13 66.82 78.83 66.62 79.13"/><path class="cls-1" d="M21.62,52.83c1.4,.7,1.9,2.4,1.2,3.8-.7,1.4-2.4,1.9-3.8,1.2s-1.9-2.4-1.2-3.8,2.4-1.9,3.8-1.2Z"/><rect class="cls-1" x="43.36" y="41.1" width=".4" height="52.1" transform="translate(-36.05 75.48) rotate(-63)"/><path class="cls-1" d="M2.82,79.53c1.6-.1,2.9,1.1,3,2.7s-1.1,2.9-2.7,3c-1.6,.1-2.9-1.1-3-2.7s1.1-3,2.7-3Z"/><rect class="cls-1" x="2.92" y="80.43" width="63.9" height=".4" transform="translate(-4.37 2.04) rotate(-3.15)"/><path class="cls-1" d="M9.42,68.03c1.5,.2,2.6,1.6,2.4,3.2-.2,1.5-1.6,2.6-3.2,2.4-1.5-.2-2.6-1.6-2.4-3.2,.3-1.5,1.7-2.6,3.2-2.4Z"/><polygon class="cls-1" points="66.72 79.13 9.02 71.03 9.12 70.63 66.72 78.73 66.72 79.13"/><path class="cls-1" d="M31.82,66.73c1.5,.4,2.4,1.9,2,3.4s-1.9,2.4-3.4,2-2.4-1.9-2-3.4c.4-1.6,1.9-2.4,3.4-2Z"/><polygon class="cls-1" points="66.72 79.13 31.02 69.63 31.12 69.23 66.82 78.73 66.72 79.13"/><path class="cls-1" d="M14.82,74.33c1.6,.1,2.8,1.4,2.7,2.9,0,1.6-1.4,2.8-2.9,2.7-1.6-.1-2.8-1.4-2.7-2.9,0-1.5,1.3-2.8,2.9-2.7Z"/><polygon class="cls-1" points="66.72 79.13 14.62 77.33 14.72 76.93 66.72 78.73 66.72 79.13"/><path class="cls-1" d="M9.02,106.43c1.4-.7,3.1-.2,3.8,1.2,.7,1.4,.2,3.1-1.2,3.8-1.4,.7-3.1,.2-3.8-1.2-.7-1.3-.2-3,1.2-3.8Z"/><polygon class="cls-1" points="10.42 109.13 10.22 108.73 66.62 78.83 66.82 79.13 10.42 109.13"/><path class="cls-1" d="M10.22,93.33c1.5-.5,3.1,.4,3.5,1.9,.5,1.5-.4,3.1-1.9,3.5-1.5,.5-3.1-.4-3.5-1.9s.4-3.1,1.9-3.5Z"/><polygon class="cls-1" points="11.12 96.13 10.92 95.83 66.72 78.73 66.82 79.13 11.12 96.13"/><path class="cls-1" d="M29.92,82.63c1.5-.3,3,.8,3.3,2.3s-.8,3-2.3,3.3-3-.8-3.3-2.3c-.3-1.6,.8-3.1,2.3-3.3Z"/><polygon class="cls-1" points="30.42 85.53 30.32 85.13 66.72 78.73 66.72 79.13 30.42 85.53"/><path class="cls-1" d="M17.72,96.73c1.4-.6,3.1,.1,3.7,1.5,.6,1.4-.1,3.1-1.5,3.7s-3.1-.1-3.7-1.5c-.6-1.5,0-3.1,1.5-3.7Z"/><polygon class="cls-1" points="18.82 99.53 18.72 99.13 66.62 78.73 66.82 79.13 18.82 99.53"/><path class="cls-1" d="M26.02,128.23c.9-1.2,2.7-1.5,3.9-.5,1.2,.9,1.5,2.7,.6,3.9-.9,1.2-2.7,1.5-3.9,.6-1.3-1-1.5-2.7-.6-4Z"/><polygon class="cls-1" points="28.42 130.13 28.12 129.83 66.62 78.83 66.92 79.03 28.42 130.13"/><path class="cls-1" d="M21.52,115.83c1.2-1,2.9-.9,4,.2,1,1.2,.9,2.9-.2,4-1.2,1-2.9,1-4-.2-1-1.2-.9-3,.2-4Z"/><polygon class="cls-1" points="23.52 118.03 23.32 117.83 66.62 78.83 66.82 79.13 23.52 118.03"/><path class="cls-1" d="M34.92,97.83c1.3-.9,3-.6,3.9,.7,.9,1.3,.6,3-.7,3.9-1.3,.9-3,.6-3.9-.7s-.6-3,.7-3.9Z"/><polygon class="cls-1" points="36.62 100.23 36.42 99.93 66.62 78.83 66.82 79.13 36.62 100.23"/><path class="cls-1" d="M29.82,115.83c1-1.2,2.8-1.3,4-.2,1.2,1,1.2,2.8,.2,4s-2.8,1.3-4,.2c-1.2-1.1-1.3-2.9-.2-4Z"/><polygon class="cls-1" points="32.02 117.83 31.72 117.53 66.62 78.83 66.92 79.13 32.02 117.83"/><polygon class="cls-1" points="53.62 141.53 53.22 141.43 66.52 78.93 66.92 79.03 53.62 141.53"/><polygon class="cls-1" points="44.12 132.63 43.82 132.53 66.52 78.83 66.92 79.03 44.12 132.63"/><path class="cls-1" d="M45.82,109.53c.8-1.3,2.5-1.8,3.8-1s1.8,2.5,1,3.8-2.5,1.8-3.8,1-1.7-2.5-1-3.8Z"/><polygon class="cls-1" points="48.42 111.03 48.12 110.83 66.52 78.83 66.92 79.03 48.42 111.03"/><path class="cls-1" d="M48.82,127.93c.4-1.5,2-2.3,3.5-1.9,1.5,.5,2.3,2,1.9,3.5-.5,1.5-2,2.3-3.5,1.9s-2.4-2-1.9-3.5Z"/><polygon class="cls-1" points="51.72 128.83 51.32 128.73 66.52 78.93 66.92 79.03 51.72 128.83"/><polygon class="cls-1" points="80.92 141.23 66.52 79.03 66.92 78.93 81.32 141.13 80.92 141.23"/><polygon class="cls-1" points="68.52 137.13 66.52 78.93 66.92 78.93 68.92 137.13 68.52 137.13"/><path class="cls-1" d="M60.72,115.43c.1-1.6,1.5-2.7,3-2.6s2.7,1.5,2.6,3-1.5,2.7-3,2.6c-1.6-.1-2.7-1.4-2.6-3Z"/><polygon class="cls-1" points="63.72 115.73 63.32 115.73 66.52 78.93 66.92 78.93 63.72 115.73"/><path class="cls-1" d="M71.22,130.93c-.2-1.5,.9-3,2.4-3.2,1.5-.2,3,.9,3.2,2.4s-.8,3-2.4,3.2c-1.6,.2-3-.9-3.2-2.4Z"/><polygon class="cls-1" points="73.82 130.53 66.52 78.93 66.92 78.93 74.22 130.53 73.82 130.53"/><path class="cls-1" d="M103.82,131.03c-1-1.2-.7-3,.5-4s3-.7,4,.5,.7,3-.5,3.9c-1.3,1-3,.8-4-.4Z"/><polygon class="cls-1" points="105.92 129.43 66.62 79.03 66.92 78.83 106.22 129.13 105.92 129.43"/><path class="cls-1" d="M90.62,132.13c-.7-1.4-.1-3.1,1.2-3.8,1.4-.7,3.1-.2,3.8,1.2,.7,1.4,.1,3.1-1.2,3.8-1.3,.7-3,.2-3.8-1.2Z"/><polygon class="cls-1" points="93.02 130.93 66.52 79.03 66.92 78.83 93.32 130.73 93.02 130.93"/><path class="cls-1" d="M76.72,114.53c-.5-1.5,.2-3.1,1.7-3.6s3.1,.2,3.6,1.7-.2,3.1-1.7,3.6c-1.5,.6-3.1-.2-3.6-1.7Z"/><polygon class="cls-1" points="79.12 113.73 66.52 79.03 66.92 78.93 79.52 113.53 79.12 113.73"/><path class="cls-1" d="M92.72,124.13c-.8-1.3-.5-3,.8-3.9,1.3-.8,3-.5,3.9,.8,.8,1.3,.5,3-.8,3.9s-3,.5-3.9-.8Z"/><polygon class="cls-1" points="94.92 122.73 66.52 79.03 66.92 78.83 95.22 122.53 94.92 122.73"/><polygon class="cls-1" points="123.52 108.13 66.62 79.13 66.82 78.73 123.72 107.73 123.52 108.13"/><path class="cls-1" d="M110.92,117.03c-1.2-1-1.4-2.7-.5-3.9,1-1.2,2.7-1.4,3.9-.5,1.2,1,1.4,2.7,.5,3.9-.9,1.2-2.7,1.5-3.9,.5Z"/><polygon class="cls-1" points="112.52 114.93 66.62 79.13 66.82 78.83 112.72 114.63 112.52 114.93"/><path class="cls-1" d="M90.82,107.03c-1.1-1.1-1.1-2.9,0-4s2.9-1.1,4,0,1.1,2.9,0,4-2.9,1.1-4,0Z"/><polygon class="cls-1" points="92.72 105.23 66.62 79.13 66.82 78.83 92.92 104.93 92.72 105.23"/><path class="cls-1" d="M109.42,108.93c-1.3-.8-1.7-2.6-.9-3.9,.8-1.3,2.6-1.7,3.9-.9,1.3,.8,1.7,2.6,.9,3.9-.9,1.3-2.6,1.7-3.9,.9Z"/><polygon class="cls-1" points="110.82 106.73 66.62 79.13 66.82 78.83 111.02 106.43 110.82 106.73"/><polygon class="cls-1" points="130.52 81.33 66.72 79.13 66.72 78.73 130.62 81.03 130.52 81.33"/><polygon class="cls-1" points="123.42 92.23 66.72 79.13 66.82 78.73 123.52 91.83 123.42 92.23"/><path class="cls-1" d="M100.42,94.23c-1.5-.5-2.2-2.1-1.7-3.6s2.1-2.2,3.6-1.7,2.2,2.1,1.7,3.6-2.1,2.2-3.6,1.7Z"/><polygon class="cls-1" points="101.32 91.73 66.62 79.13 66.82 78.73 101.42 91.43 101.32 91.73"/><polygon class="cls-1" points="118.42 85.53 66.72 79.13 66.72 78.73 118.42 85.13 118.42 85.53"/><polygon class="cls-1" points="66.82 79.13 66.62 78.73 125.42 53.83 125.62 54.13 66.82 79.13"/><rect class="cls-1" x="66.12" y="72.72" width="58.3" height=".4" transform="translate(-13.09 21.42) rotate(-12.01)"/><path class="cls-1" d="M103.72,78.53c-1.5,.1-2.9-1-3-2.6-.1-1.5,1-2.9,2.6-3s2.9,1,3.1,2.6c0,1.5-1.1,2.9-2.7,3Z"/><polygon class="cls-1" points="66.72 79.13 66.72 78.73 103.42 75.53 103.52 75.93 66.72 79.13"/><polygon class="cls-1" points="66.82 79.13 66.62 78.73 116.22 62.63 116.32 63.03 66.82 79.13"/><path class="cls-1" d="M100.12,62.93c-1.3,.8-3.1,.3-3.8-1-.8-1.3-.3-3.1,1-3.8,1.3-.8,3.1-.3,3.8,1,.8,1.3,.3,3-1,3.8Z"/><rect class="cls-1" x="64.21" y="69.55" width="36.9" height=".4" transform="translate(-23.8 50.65) rotate(-29.99)"/><polygon class="cls-1" points="66.82 79.13 66.62 78.83 104.72 43.33 104.92 43.53 66.82 79.13"/><path class="cls-1" d="M88.12,18.63c-.5,1.5-2,2.3-3.5,1.9-1.5-.5-2.3-2-1.9-3.5,.5-1.5,2-2.3,3.5-1.9,1.5,.5,2.3,2.1,1.9,3.5Z"/><polygon class="cls-1" points="66.92 79.03 66.52 78.93 85.22 17.83 85.62 17.93 66.92 79.03"/><path class="cls-1" d="M96.52,28.83c-.7,1.4-2.4,1.9-3.8,1.2-1.4-.7-1.9-2.4-1.2-3.8,.7-1.4,2.4-1.9,3.8-1.2,1.4,.7,2,2.4,1.2,3.8Z"/><rect class="cls-1" x="51.28" y="52.98" width="58.3" height=".4" transform="translate(-4.14 99.49) rotate(-62.18)"/><path class="cls-1" d="M90.22,50.33c-.9,1.3-2.6,1.6-3.9,.7-1.3-.9-1.6-2.6-.7-3.9,.9-1.3,2.6-1.6,3.9-.7,1.3,.9,1.6,2.6,.7,3.9Z"/><polygon class="cls-1" points="66.92 79.03 66.62 78.83 87.72 48.63 88.02 48.83 66.92 79.03"/><path class="cls-1" d="M88.82,31.73c-.6,1.4-2.2,2.1-3.7,1.5-1.4-.6-2.1-2.2-1.5-3.7,.6-1.4,2.2-2.1,3.7-1.6,1.4,.7,2.1,2.3,1.5,3.8Z"/><polygon class="cls-1" points="66.92 79.03 66.52 78.83 86.02 30.63 86.42 30.73 66.92 79.03"/><path class="cls-1" d="M60.62,15.33c.2,1.5-.9,3-2.4,3.2-1.5,.2-3-.9-3.2-2.4s.8-3,2.4-3.2c1.6-.2,3,.8,3.2,2.4Z"/><polygon class="cls-1" points="66.52 78.93 57.62 15.73 58.02 15.63 66.92 78.93 66.52 78.93"/><path class="cls-1" d="M72.62,20.93c-.1,1.6-1.4,2.7-2.9,2.7-1.6-.1-2.7-1.4-2.7-3,.1-1.6,1.4-2.7,3-2.7,1.5,.1,2.6,1.4,2.6,3Z"/><polygon class="cls-1" points="66.92 78.93 66.52 78.93 69.62 20.73 70.02 20.83 66.92 78.93"/><path class="cls-1" d="M75.92,43.13c-.3,1.5-1.7,2.6-3.3,2.3-1.5-.3-2.6-1.7-2.3-3.3,.3-1.5,1.7-2.5,3.3-2.3,1.5,.3,2.6,1.8,2.3,3.3Z"/><polygon class="cls-1" points="66.92 79.03 66.52 78.93 72.92 42.63 73.32 42.63 66.92 79.03"/><path class="cls-1" d="M71.92,78.93c0,2.9-2.3,5.2-5.2,5.2s-5.2-2.3-5.2-5.2,2.3-5.2,5.2-5.2c2.9,0,5.2,2.3,5.2,5.2Z"/><g><path class="cls-2" d="M147.32,43.73c-1.5,.3-3-.7-3.3-2.2s.6-3,2.2-3.3c1.5-.3,3,.6,3.3,2.2,.3,1.5-.7,2.9-2.2,3.3Z"/><polygon class="cls-2" points="113.32 48.23 113.22 47.83 146.72 40.73 146.82 41.13 113.32 48.23"/></g><g><path class="cls-2" d="M117.22,5.53c-.6,1.4-2.3,2.1-3.7,1.5-1.4-.6-2.1-2.3-1.5-3.7s2.3-2.1,3.7-1.4c1.4,.5,2.1,2.2,1.5,3.6Z"/><polygon class="cls-2" points="101.12 35.83 100.72 35.73 114.42 4.33 114.82 4.43 101.12 35.83"/></g><g><path class="cls-2" d="M150.72,4.93c-1.1,1.1-2.9,1-4-.1s-1-2.9,.1-4c1.1-1.1,2.9-1,4,.1,1.1,1.2,1,3-.1,4Z"/><rect class="cls-2" x="119.34" y="14.64" width="34.2" height=".4" transform="translate(28.09 99.07) rotate(-44.07)"/></g><path class="cls-1" d="M107.72,43.13c.2,1.5-.9,3-2.4,3.2s-3-.9-3.2-2.4,.8-3,2.4-3.2c1.6-.2,3,.8,3.2,2.4Z"/></svg>