<?xml version="1.0" encoding="UTF-8"?><svg id="Calque_1" xmlns="http://www.w3.org/2000/svg" viewBox="0 0 348.6 71.29"><defs><style>.cls-1,.cls-2{fill:#fff;}.cls-2{stroke:#fff;stroke-miterlimit:10;stroke-width:.62px;}.cls-3{fill:#e8c73c;}</style></defs><path class="cls-1" d="M43.57,38.35c.9,0,1.7,0,2.3-.1s1.2-.3,1.7-.6,.9-.9,1.3-1.6c.4-.7,.8-1.7,1.1-3l1.2,.4c.1,0,.1,.1,.1,.3,0,.5-.1,1-.1,1.6-.1,.5-.2,1.1-.3,1.6s-.2,1-.4,1.4c-.1,.4-.3,.8-.5,1.1-.1,.1-.2,.2-.4,.3-.2,0-.4,.1-.5,.1h-16.6c-.2,0-.3-.1-.4-.2-.1-.2-.1-.3-.1-.5s0-.4,.1-.5c.1-.2,.2-.3,.4-.3,.3-.1,.6-.1,.9-.1s.6-.1,.8-.2c.3-.1,.5-.2,.6-.4,.2-.2,.3-.4,.3-.7V15.85c0-.3-.1-.5-.3-.7s-.4-.3-.6-.4c-.3-.1-.5-.1-.9-.2-.3,0-.6-.1-.9-.1-.2,0-.3-.1-.4-.3-.1-.2-.1-.3-.1-.5s0-.4,.1-.5c.1-.2,.2-.2,.4-.2h6.9l10-.1c.5,0,.6,.4,.5,1.1-.1,.5-.2,1-.2,1.5-.1,.5-.1,1-.1,1.5v2.4c-.6,0-.9,0-1-.1l-.3-.3c-.1-.8-.3-1.4-.4-2-.2-.6-.4-1.1-.6-1.4-.3-.4-.6-.7-1.1-.9s-1.1-.3-1.9-.3c-1.4,0-2.5,0-3.2,.1-.7,0-1.2,.1-1.4,.1-.3,.1-.5,.2-.5,.5-.1,.2-.1,.6-.1,1.1v4.2c0,1.3,0,2.7,.1,4.2,0,.4,.2,.7,.5,.7h3.2c.6,0,1.1-.1,1.5-.2,.4-.1,.6-.4,.8-.6,.2-.3,.3-.7,.4-1.1,.1-.4,.2-1,.4-1.6,.1-.1,.3-.1,.7-.1h.7c-.1,1.5-.1,2.9-.1,4.4s0,2.9,.1,4.4h-.7c-.4,0-.6-.1-.7-.1-.1-.6-.3-1.2-.3-1.6-.1-.5-.2-.8-.4-1.1s-.4-.5-.8-.6c-.3-.1-.8-.2-1.4-.2h-3.4c-.3,0-.5,.2-.5,.7v8.7c0,.9,.4,1.6,1.1,2,.4-.1,1.6,.1,3.4,.1Z"/><path class="cls-1" d="M95.17,36.85c0,.3,.1,.5,.2,.7,.2,.2,.3,.3,.6,.4,.2,.1,.5,.1,.8,.2,.3,0,.6,.1,.9,.1,.2,0,.3,.1,.4,.3,.1,.2,.1,.3,.1,.5s0,.4-.1,.5c-.1,.2-.2,.2-.4,.2-2.8-.1-5.7-.1-8.6,0-.2,0-.3-.1-.4-.2-.1-.2-.1-.3-.1-.5s0-.4,.1-.5c.1-.2,.2-.3,.4-.3,.3-.1,.6-.1,.9-.1s.6-.1,.8-.2c.2-.1,.4-.2,.6-.4,.2-.2,.2-.4,.2-.7l.1-21.1c0-.3-.1-.5-.2-.7-.2-.2-.4-.3-.6-.4-.2-.1-.5-.1-.8-.2-.3,0-.6-.1-.9-.1-.2,0-.3-.1-.4-.3-.1-.2-.1-.3-.1-.5s0-.4,.1-.5c.1-.2,.2-.2,.4-.2l4.9,.1,3.7-.1c.2,0,.3,.1,.4,.2,.1,.2,.1,.3,.1,.5s0,.4-.1,.5c-.1,.2-.2,.3-.4,.3-.3,.1-.6,.1-.9,.2-.3,0-.6,.1-.8,.2-.3,.1-.5,.2-.6,.4-.2,.2-.3,.4-.3,.7v21h0Z"/><path class="cls-1" d="M117.57,38.35c.9,0,1.7,0,2.3-.1s1.2-.3,1.7-.6,.9-.9,1.3-1.6c.4-.7,.8-1.7,1.1-3l1.2,.4c.1,0,.1,.1,.1,.3,0,.5-.1,1-.1,1.6-.1,.5-.2,1.1-.3,1.6s-.2,1-.4,1.4c-.1,.4-.3,.8-.5,1.1-.1,.1-.2,.2-.4,.3-.2,0-.4,.1-.5,.1h-16.6c-.2,0-.3-.1-.4-.2-.1-.2-.1-.3-.1-.5s0-.4,.1-.5c.1-.2,.2-.3,.4-.3,.3-.1,.6-.1,.9-.1s.6-.1,.8-.2c.3-.1,.5-.2,.6-.4,.2-.2,.3-.4,.3-.7V15.85c0-.3-.1-.5-.3-.7s-.4-.3-.6-.4c-.3-.1-.5-.1-.9-.2-.3,0-.6-.1-.9-.1-.2,0-.3-.1-.4-.3-.1-.2-.1-.3-.1-.5s0-.4,.1-.5c.1-.2,.2-.2,.4-.2h6.9l10-.1c.5,0,.6,.4,.5,1.1-.1,.5-.2,1-.2,1.5-.1,.5-.1,1-.1,1.5v2.4c-.6,0-.9,0-1-.1l-.3-.3c-.1-.8-.3-1.4-.4-2-.2-.6-.4-1.1-.6-1.4-.3-.4-.6-.7-1.1-.9s-1.1-.3-1.9-.3c-1.4,0-2.5,0-3.2,.1-.7,0-1.2,.1-1.4,.1-.3,.1-.5,.2-.5,.5-.1,.2-.1,.6-.1,1.1v4.2c0,1.3,0,2.7,.1,4.2,0,.4,.2,.7,.5,.7h3.2c.6,0,1.1-.1,1.5-.2,.4-.1,.6-.4,.8-.6,.2-.3,.3-.7,.4-1.1,.1-.4,.2-1,.4-1.6,.1-.1,.3-.1,.7-.1h.7c-.1,1.5-.1,2.9-.1,4.4s0,2.9,.1,4.4h-.7c-.4,0-.6-.1-.7-.1-.1-.6-.3-1.2-.3-1.6-.1-.5-.2-.8-.4-1.1s-.4-.5-.8-.6c-.3-.1-.8-.2-1.4-.2h-3.3c-.3,0-.5,.2-.5,.7v8.7c0,.9,.4,1.6,1.1,2,.3-.1,1.6,.1,3.3,.1Z"/><path class="cls-1" d="M133.27,12.85c.4,0,.9,0,1.5,.1h2.6c.5,0,1.1,0,1.8-.1,2.4,3.4,4.8,6.8,7.2,10.2,2.4,3.4,4.9,6.9,7.3,10.3V15.85c0-.3-.1-.5-.3-.7-.2-.2-.4-.3-.6-.4-.3-.1-.5-.1-.8-.2-.3,0-.6-.1-.9-.1-.2,0-.3-.1-.4-.3s-.1-.3-.1-.5,0-.3,.1-.5,.2-.2,.4-.2h7.5c.2,0,.3,.1,.4,.2,.1,.2,.1,.3,.1,.5s0,.4-.1,.5c-.1,.2-.2,.3-.4,.3-.3,.1-.6,.1-.9,.1s-.6,.1-.8,.2c-.3,.1-.5,.2-.6,.4-.2,.2-.2,.4-.2,.7v23.9h-2.3c-.3-.4-.7-1-1.3-1.9-.6-.9-1.5-2.2-2.7-3.9s-2.7-3.9-4.6-6.6c-1.9-2.7-4.2-6-7.1-10l.2,19.4c0,.3,.1,.5,.2,.7,.2,.2,.4,.3,.6,.4,.3,.1,.5,.1,.8,.2,.3,0,.6,.1,.9,.1,.2,0,.3,.1,.4,.3s.1,.3,.1,.5,0,.4-.1,.5c-.1,.2-.2,.2-.4,.2h-7.6c-.2,0-.3-.1-.4-.2-.1-.2-.1-.3-.1-.5s0-.4,.1-.5c.1-.2,.2-.3,.4-.3,.3-.1,.6-.1,.9-.1s.6-.1,.8-.2c.3-.1,.5-.2,.6-.4,.2-.2,.3-.4,.3-.7V15.55c0-.3-.1-.5-.3-.7-.2-.2-.4-.3-.6-.4-.3-.1-.5-.1-.8-.2-.3,0-.6-.1-.9-.1-.2,0-.3-.1-.4-.3s-.1-.3-.1-.5,0-.3,.1-.5c.2,.1,.3,0,.5,0Z"/><g><path class="cls-2" d="M8.67,34.65c0,1.2,.5,2,1.4,2.5s2.5,.7,4.7,.7c1.1,0,2,0,2.8-.1s1.5-.3,2.1-.8c.6-.4,1.1-1.1,1.6-1.9,.5-.9,.9-2.1,1.4-3.7l1.4,.5c.1,0,.2,.2,.2,.4,0,.6-.1,1.3-.2,1.9-.1,.7-.2,1.3-.3,2-.1,.6-.3,1.2-.5,1.8-.2,.5-.4,1-.6,1.3-.1,.2-.3,.3-.5,.3-.3,0-.5,.1-.6,.1H1.57c-.2,0-.4-.1-.5-.3s-.2-.4-.2-.6,.1-.5,.2-.7,.3-.3,.5-.4c.3-.1,.7-.1,1.1-.2,.4,0,.7-.1,1-.2,.3-.1,.6-.3,.8-.5s.3-.5,.3-.9V9.95c0-.4-.1-.7-.3-.9s-.5-.3-.8-.4c-.3-.1-.7-.2-1.1-.2-.4-.1-.8-.1-1.1-.2-.2,0-.4-.2-.5-.4s-.2-.4-.2-.6,.1-.4,.2-.6c.1-.2,.3-.3,.5-.3,2,.1,3.8,.1,5.6,.1,1.7,0,3.4-.1,4.9-.1,.2,0,.4,.1,.5,.3s.2,.4,.2,.6,0,.4-.2,.6c-.1,.2-.3,.3-.5,.4-.4,.1-.8,.1-1.1,.2-.4,.1-.7,.1-1,.2-.3,.1-.6,.2-.8,.4s-.3,.5-.3,.9v24.7h-.1Z"/><path class="cls-2" d="M56.77,39.55c-.2,0-.4-.1-.5-.3s-.2-.4-.2-.6,.1-.4,.2-.6c.1-.2,.3-.3,.5-.4,.3-.1,.7-.1,1.1-.2,.4,0,.7-.1,1.1-.2,.3-.1,.6-.3,.8-.5s.3-.5,.3-.9l-.1-25.9c0-.4-.1-.7-.3-.9s-.5-.3-.8-.4c-.3-.1-.7-.2-1.1-.2-.4-.1-.8-.1-1.1-.2-.2,0-.4-.2-.5-.4s-.2-.4-.2-.7c0-.2,.1-.5,.2-.6,.1-.2,.3-.3,.5-.3h6.4c1.7,0,3.2,.1,4.3,.1,1.2,0,2.1,.1,2.7,.2,.7,0,1.2,.1,1.6,.1,2.5,.4,4.3,1.2,5.4,2.5,1.1,1.3,1.7,2.9,1.7,4.9s-.5,3.6-1.6,4.9c-1,1.3-2.7,2.3-4.9,2.8,2.7,.3,4.8,1.2,6.2,2.5,1.4,1.4,2.1,3.2,2.1,5.5,0,1.7-.3,3.2-1,4.5-.7,1.4-1.9,2.5-3.6,3.5-.8,.5-1.9,.9-3.3,1.1-1.4,.3-2.9,.4-4.6,.4h-11.3v.3Zm8.5-18.4h1.5c.6,0,1.1-.1,1.6-.1,.5-.1,1-.1,1.4-.2,.4-.1,.7-.1,.9-.2,1.6-.5,2.7-1.3,3.3-2.3s.9-2.2,.9-3.7c0-1.4-.2-2.6-.7-3.4-.5-.8-1.2-1.4-2.1-1.8-.9-.4-2-.7-3.4-.8-1.3-.1-2.9-.2-4.6-.2v12.7h1.2Zm-1.2,14.8c0,.7,.1,1.1,.3,1.2,.2,.2,.6,.3,1.1,.5,.4,.1,.9,.2,1.6,.2h1.6c1.2,0,2.3-.1,3.3-.4,1-.2,1.8-.7,2.5-1.3s1.2-1.4,1.6-2.3c.4-1,.5-2.2,.5-3.6,0-1.6-.3-2.8-.9-3.8-.6-1-1.4-1.7-2.5-2.2s-2.3-.9-3.7-1c-1.4-.2-2.8-.3-4.4-.3h-1v13h0Z"/><path class="cls-2" d="M181.27,37.85c1.1,0,2,0,2.8-.1s1.5-.3,2.1-.8c.6-.4,1.1-1.1,1.6-1.9,.5-.9,.9-2.1,1.4-3.7l1.4,.5c.1,0,.2,.2,.2,.4,0,.6-.1,1.3-.2,1.9-.1,.7-.2,1.3-.3,2-.1,.6-.3,1.2-.5,1.8-.2,.5-.4,1-.6,1.3-.1,.2-.3,.3-.5,.3-.3,0-.5,.1-.6,.1h-20.4c-.2,0-.4-.1-.5-.3s-.2-.4-.2-.6,.1-.4,.2-.6c.1-.2,.3-.3,.5-.4,.3-.1,.7-.1,1.1-.2,.4,0,.7-.1,1-.2,.3-.1,.6-.3,.8-.5,.2-.2,.3-.5,.3-.9V10.05c0-.4-.1-.7-.3-.9-.2-.2-.5-.3-.8-.4-.3-.1-.7-.2-1.1-.2-.4-.1-.8-.1-1.1-.2-.2,0-.4-.2-.5-.4s-.2-.4-.2-.7c0-.2,0-.5,.2-.6,.1-.2,.3-.3,.5-.3h4.2c1.2,0,2.6,0,4.2,.1l12.3-.1c.6,0,.8,.4,.6,1.3-.1,.6-.2,1.2-.3,1.8-.1,.6-.1,1.3-.1,1.9s0,1.2-.1,1.7v1.3c-.7,0-1.1,0-1.3-.1-.2-.1-.3-.2-.3-.4-.2-.9-.4-1.7-.5-2.4-.2-.7-.4-1.3-.8-1.8-.3-.5-.8-.8-1.4-1.1-.6-.2-1.4-.4-2.4-.4-1.7,0-3.1,0-4,.1s-1.5,.1-1.8,.2c-.3,.1-.6,.3-.6,.6-.1,.3-.1,.7-.1,1.3v5.1c0,1.6,0,3.3,.1,5.1,0,.5,.2,.8,.6,.8l4-.1c.8,0,1.4-.1,1.8-.3s.8-.4,1-.8c.2-.4,.4-.8,.5-1.4,.1-.5,.3-1.2,.4-1.9,.1-.1,.4-.1,.9-.2,.4-.1,.7-.1,.8,0-.1,1.8-.2,3.6-.2,5.4s0,3.6,.1,5.4h-.9c-.4,0-.7-.1-.9-.2-.2-.8-.3-1.4-.4-2s-.3-1-.5-1.4-.5-.6-1-.8c-.4-.2-1-.3-1.8-.3h-4.1c-.4,0-.6,.3-.6,.8l-.1,10.6c0,1.2,.5,2,1.4,2.5,1.3,.9,2.9,1.2,5,1.2Z"/></g><path class="cls-1" d="M206.07,17.45c0-.9-.3-1.6-.8-2.1-.5-.4-1.3-.6-2.2-.6-.6,0-1.1,0-1.6,.1s-.9,.3-1.3,.6-.8,.9-1.1,1.6c-.4,.7-.7,1.7-1.1,3l-1.2-.4c-.1,0-.1-.1-.1-.3,0-.5,.1-1,.2-1.6s.2-1.1,.3-1.7c.1-.5,.2-1,.4-1.5,.1-.5,.3-.8,.5-1.1,.1-.1,.4-.2,1-.3s1.4-.2,2.3-.2c.9-.1,2-.1,3.2-.1h7.1c1.1,0,2.1,.1,3,.1,.9,.1,1.6,.1,2.2,.2,.6,.1,.9,.2,.9,.3,.2,.3,.3,.7,.5,1.2,.1,.5,.3,1,.4,1.5s.2,1.1,.3,1.6c.1,.6,.1,1.1,.2,1.6,0,.2,0,.3-.1,.3l-1.2,.4c-.4-1.3-.8-2.3-1.1-3-.4-.7-.7-1.2-1.2-1.6-.4-.3-.8-.5-1.3-.6s-1-.1-1.6-.1c-.9,0-1.7,.2-2.2,.6-.5,.4-.8,1.1-.8,2.1v19.4c0,.3,.1,.5,.3,.7,.2,.2,.5,.3,.8,.4,.3,.1,.6,.1,1,.2,.3,0,.7,.1,1,.1,.2,0,.3,.1,.4,.3s.1,.3,.1,.5,0,.4-.1,.5c-.1,.2-.2,.2-.4,.2-3.1-.1-6.3-.1-9.5,0-.2,0-.3-.1-.4-.2-.1-.2-.1-.3-.1-.5s0-.4,.1-.5c.1-.2,.2-.3,.4-.3,.3-.1,.6-.1,.9-.1s.7-.1,1-.2c.3-.1,.6-.2,.8-.4,.2-.2,.3-.4,.3-.7l-.2-19.4Z"/><path class="cls-1" d="M232.47,12.75c1.8,0,3.2,0,4.4,.1,1.2,.1,2.2,.2,3.1,.4,1.9,.4,3.3,1.1,4.3,2.3s1.5,2.8,1.5,4.8c0,1.5-.4,2.9-1.3,4.1-.9,1.2-2.1,2.1-3.8,2.8,.5,1,1,1.9,1.5,2.7,.4,.8,.9,1.5,1.3,2.2,.4,.6,.8,1.2,1.2,1.8,.4,.5,.8,1.1,1.2,1.6,.6,.8,1.2,1.5,1.8,2.1,.6,.6,1.3,1.3,2.2,1.9l-.8,1.3c-1.2-.4-2.1-.8-2.9-1.3s-1.5-1.1-2.3-1.9c-.4-.4-.9-.9-1.4-1.5s-1-1.2-1.5-2-1.1-1.7-1.7-2.7-1.3-2.2-2.1-3.5c-.1,0-.4,0-.8,.1h-2.1c-.3,0-.6,0-.9-.1v8.9c0,.3,.1,.5,.2,.7,.2,.2,.4,.3,.6,.4,.3,.1,.5,.1,.8,.2,.3,0,.6,.1,.9,.1,.2,0,.3,.1,.4,.3s.1,.3,.1,.5,0,.4-.1,.5c-.1,.2-.2,.2-.4,.2h-8.6c-.2,0-.3-.1-.4-.2-.1-.2-.1-.3-.1-.5s0-.4,.1-.5c.1-.2,.2-.3,.4-.3,.3-.1,.6-.1,.9-.1s.6-.1,.9-.2c.3-.1,.5-.2,.7-.4s.3-.4,.3-.7V15.75c0-.3-.1-.5-.3-.7-.2-.2-.4-.3-.6-.4-.3-.1-.5-.1-.8-.2-.3,0-.6-.1-.9-.1-.2,0-.3-.1-.4-.3s-.1-.3-.1-.5,0-.3,.1-.5,.2-.2,.4-.2h5v-.1Zm.9,13.7c.4,.1,.8,.1,1.2,.1h1c1.2,0,2.1-.2,3-.5,.8-.3,1.5-.8,2.1-1.3,.5-.5,.9-1.2,1.2-1.9,.3-.7,.4-1.5,.4-2.3,0-1.3-.3-2.4-.8-3.3-.6-.9-1.3-1.5-2.3-1.9-.4-.2-.9-.3-1.4-.4-.5-.1-1-.1-1.5-.2-.5,0-1-.1-1.5-.1h-1.3v11.8h-.1Z"/><path class="cls-1" d="M268.77,38.35c.9,0,1.7,0,2.3-.1,.6-.1,1.2-.3,1.7-.6s.9-.9,1.3-1.6c.4-.7,.8-1.7,1.2-3l1.2,.4c.1,0,.1,.1,.1,.3,0,.5-.1,1-.1,1.6-.1,.5-.2,1.1-.3,1.6-.1,.5-.2,1-.4,1.4-.1,.4-.3,.8-.5,1.1-.1,.1-.2,.2-.4,.3-.2,0-.4,.1-.5,.1h-16.6c-.2,0-.3-.1-.4-.2-.1-.2-.1-.3-.1-.5s0-.4,.1-.5c.1-.2,.2-.3,.4-.3,.3-.1,.6-.1,.9-.1s.6-.1,.8-.2c.3-.1,.5-.2,.6-.4,.2-.2,.3-.4,.3-.7V15.85c0-.3-.1-.5-.3-.7-.2-.2-.4-.3-.6-.4-.3-.1-.5-.1-.9-.2-.3,0-.6-.1-.9-.1-.2,0-.3-.1-.4-.3s-.1-.3-.1-.5,0-.4,.1-.5c.1-.2,.2-.2,.4-.2h6.9l10-.1c.5,0,.6,.4,.5,1.1-.1,.5-.2,1-.2,1.5-.1,.5-.1,1-.1,1.5v2.4c-.6,0-.9,0-1-.1l-.3-.3c-.1-.8-.3-1.4-.4-2-.2-.6-.4-1.1-.6-1.4-.3-.4-.6-.7-1.1-.9s-1.1-.3-1.9-.3c-1.4,0-2.5,0-3.2,.1-.7,0-1.2,.1-1.4,.1-.3,.1-.5,.2-.5,.5-.1,.2-.1,.6-.1,1.1v4.2c0,1.3,0,2.7,.1,4.2,0,.4,.2,.7,.5,.7h3.2c.6,0,1.1-.1,1.5-.2,.4-.1,.6-.4,.8-.6,.2-.3,.3-.7,.4-1.1,.1-.4,.2-1,.4-1.6,.1-.1,.3-.1,.7-.1h.7c-.1,1.5-.1,2.9-.1,4.4s0,2.9,.1,4.4h-.7c-.4,0-.6-.1-.7-.1-.1-.6-.3-1.2-.3-1.6-.1-.5-.2-.8-.4-1.1-.2-.3-.4-.5-.8-.6s-.8-.2-1.4-.2h-3.3c-.3,0-.5,.2-.5,.7v8.7c0,.9,.4,1.6,1.2,2,0-.1,1.3,.1,3.1,.1Z"/><path class="cls-1" d="M290.67,36.95c0,1-.3,1.7-.8,2.3-.5,.5-1.2,.8-2.1,.8-.8,0-1.5-.3-2.1-.8s-.9-1.3-.9-2.1c0-.9,.3-1.6,.9-2.1s1.2-.8,2-.8c.9,0,1.6,.3,2.1,.8,.6,.5,.9,1.1,.9,1.9Z"/><path class="cls-1" d="M299.57,39.75c-.2,0-.3-.1-.4-.2-.1-.2-.1-.3-.1-.5s0-.4,.1-.5c.1-.2,.2-.3,.4-.3,.3-.1,.6-.1,.9-.1s.6-.1,.9-.2c.3-.1,.5-.2,.6-.4,.2-.2,.3-.4,.3-.7V15.25c0-.3-.1-.6-.3-.7-.2-.2-.4-.3-.6-.4-.3-.1-.5-.2-.9-.2-.3,0-.6-.1-.9-.2-.2,0-.3-.1-.4-.3s-.1-.4-.1-.6,0-.4,.1-.5c.1-.2,.2-.2,.4-.2h7l10.3-.1c.5,0,.7,.4,.5,1.1-.1,.5-.2,1-.2,1.5-.1,.5-.1,1-.1,1.6v2.5c-.6,0-.9,0-1.1-.1l-.3-.3c-.1-.8-.3-1.4-.5-2s-.4-1.1-.6-1.5c-.3-.4-.7-.7-1.2-.9s-1.2-.3-2-.3c-1.5,0-2.6,0-3.3,.1-.8,0-1.2,.1-1.5,.2-.3,.1-.5,.3-.5,.5-.1,.2-.1,.6-.1,1.1v4.3c0,1.3,0,2.8,.1,4.3,0,.5,.2,.7,.5,.7h3.3c.6,0,1.1-.1,1.5-.2,.4-.1,.7-.4,.9-.7,.2-.3,.3-.7,.4-1.1,.1-.5,.2-1,.4-1.6,.1-.1,.4-.1,.7-.1,.4,0,.6-.1,.7,0-.1,1.5-.1,3-.2,4.5,0,1.5,0,3,.1,4.5h-.7c-.4,0-.6-.1-.7-.2-.1-.6-.3-1.2-.3-1.6-.1-.5-.2-.9-.4-1.2-.2-.3-.5-.5-.8-.7-.4-.1-.9-.2-1.5-.2h-3.4c-.3,0-.5,.2-.5,.7v10c0,.3,.1,.6,.2,.7,.2,.2,.4,.3,.6,.4,.3,.1,.5,.1,.9,.2,.3,0,.6,.1,.9,.1,.2,0,.3,.1,.4,.3s.1,.3,.1,.5,0,.4-.1,.5c-.1,.2-.2,.2-.4,.2h-9.1v-.1Z"/><path class="cls-1" d="M329.77,12.15c1.8,0,3.3,0,4.5,.1,1.2,.1,2.3,.2,3.2,.4,1.9,.4,3.4,1.2,4.4,2.4s1.5,2.8,1.5,4.9c0,1.5-.4,2.9-1.3,4.2-.9,1.2-2.2,2.2-3.9,2.8,.5,1.1,1,2,1.5,2.8s.9,1.5,1.3,2.2,.8,1.3,1.2,1.8c.4,.6,.8,1.1,1.2,1.6,.6,.8,1.2,1.5,1.8,2.1,.6,.6,1.3,1.3,2.3,2l-.8,1.4c-1.2-.4-2.2-.9-3-1.4s-1.6-1.2-2.4-1.9c-.5-.4-.9-.9-1.4-1.5s-1-1.2-1.6-2-1.2-1.7-1.8-2.7c-.6-1-1.3-2.2-2.1-3.6-.1,0-.4,.1-.8,.1h-2.2c-.3,0-.6,0-.9-.1v9.1c0,.3,.1,.6,.2,.7,.2,.2,.4,.3,.6,.4,.3,.1,.5,.1,.9,.2,.3,0,.6,.1,.9,.1,.2,0,.3,.1,.4,.3s.1,.3,.1,.5,0,.4-.1,.5c-.1,.2-.2,.2-.4,.2h-8.8c-.2,0-.3-.1-.4-.2-.1-.2-.1-.3-.1-.5s0-.4,.1-.5c.1-.2,.2-.3,.4-.3,.3-.1,.6-.1,.9-.1s.6-.1,.9-.2c.3-.1,.5-.2,.7-.4s.3-.4,.3-.7V15.25c0-.3-.1-.6-.3-.7-.2-.2-.4-.3-.6-.4-.3-.1-.5-.2-.9-.2-.3,0-.6-.1-.9-.2-.2,0-.3-.1-.4-.3s-.1-.4-.1-.5c0-.2,0-.4,.1-.5,.1-.2,.2-.2,.4-.2h5.4v-.1Zm1,14c.4,.1,.8,.1,1.2,.1h1c1.2,0,2.2-.2,3.1-.5s1.6-.8,2.1-1.3c.5-.6,.9-1.2,1.2-2,.3-.8,.4-1.5,.4-2.4,0-1.4-.3-2.5-.9-3.4s-1.4-1.5-2.4-2c-.4-.2-.9-.3-1.4-.4-.5-.1-1-.2-1.5-.2s-1-.1-1.5-.1h-1.4v12.2h.1Z"/><path class="cls-3" d="M96.67,3.05c0,1-.3,1.7-.8,2.3-.5,.5-1.2,.8-2.1,.8-.8,0-1.5-.3-2.1-.8s-.9-1.3-.9-2.1c0-.9,.3-1.6,.9-2.1,.6-.5,1.2-.8,2-.8,.9,0,1.6,.3,2.1,.8,.6,.4,.9,1.1,.9,1.9Z"/><g><path class="cls-1" d="M118.71,54.64v16.32h-1.07v-13.35l-4.81,13.35h-1.07l-4.81-13.35v13.35h-1.07v-16.32h1.07l5.35,14.79,5.35-14.79h1.07Z"/><path class="cls-1" d="M121.56,62.76c0-4.42,2.85-8.12,6.51-8.12,3.92,0,6.51,4.06,6.51,8.12,0,4.42-2.94,8.21-6.51,8.21-3.92,0-6.51-4.06-6.51-8.21Zm.98,0c0,3.88,2.5,7.12,5.53,7.12s5.53-3.16,5.53-7.12-2.5-7.12-5.53-7.12c-3.03,.09-5.53,3.25-5.53,7.12Z"/><path class="cls-1" d="M147.77,54.64v16.32h-1.6l-7.67-14.25v14.25h-1.07v-16.32h1.07l8.2,15.24v-15.24h1.07Z"/><path class="cls-1" d="M156.33,62.85c0-4.42,2.85-8.21,6.51-8.21,2.05,0,4.01,1.17,5.53,3.7l-.89,.54c-1.34-2.16-2.85-3.16-4.64-3.16-3.03,0-5.53,3.16-5.53,7.12s2.5,7.12,5.53,7.12c1.69,0,3.39-.99,4.72-3.16l.89,.54c-1.52,2.43-3.57,3.7-5.62,3.7-3.92-.09-6.51-4.15-6.51-8.21Z"/><path class="cls-1" d="M170.32,70.97l5.62-16.32h.98l5.62,16.32h-1.07l-2.14-6.31c-.36,.18-.89,.27-1.52,.27h-3.03c-1.25,0-1.6,.81-1.6,.9l-1.78,5.14h-1.07Zm3.48-6.85c.27-.09,.62-.18,.98-.18h3.03c.8,0,1.07-.18,1.16-.27l-2.5-7.3-2.67,7.76Z"/><path class="cls-1" d="M184.94,70.97v-16.32h4.72c3.83,0,6.51,3.97,6.51,8.12,0,4.96-3.3,8.21-6.51,8.21h-4.72Zm4.72-1.08c3.03,0,5.44-3.34,5.44-7.12s-2.41-7.12-5.44-7.12h-3.74v14.25h3.74Z"/><path class="cls-1" d="M198.94,70.97v-16.32h9.63v1.08h-8.56v6.31c.27-.09,.36-.18,.89-.18h7.76v1.08h-7.76c-.71,0-.8,.45-.8,.63v6.4h8.56v1.08h-9.72v-.09Z"/><path class="cls-1" d="M211.33,70.97l5.62-16.32h.98l5.62,16.32h-1.07l-2.14-6.31c-.36,.18-.89,.27-1.52,.27h-3.03c-1.25,0-1.6,.81-1.6,.9l-1.78,5.14h-1.07Zm3.48-6.85c.27-.09,.62-.18,.98-.18h3.03c.8,0,1.07-.18,1.16-.27l-2.5-7.3-2.67,7.76Z"/><path class="cls-1" d="M230.58,70.97c-2.76,0-5.08-2.34-5.08-5.14v-11.09h1.07v11.09c0,2.25,1.78,4.06,4.01,4.06s4.01-1.8,4.01-4.06v-11.09h1.07v11.09c0,2.8-2.32,5.14-5.08,5.14h0Z"/><path class="cls-1" d="M255.54,66.37c0,2.53-2.05,4.6-4.55,4.6h-6.69v-16.32h6.69c2.23,0,4.1,1.89,4.1,4.15,0,1.53-.8,2.89-2.05,3.52,1.52,.72,2.5,2.34,2.5,4.06Zm-1.07,0c0-1.89-1.6-3.52-3.48-3.52h-4.81c-.36,0-.62,0-.89-.18v7.21h5.62c1.96,0,3.57-1.62,3.57-3.52Zm-9.09-10.73v5.5c0,.27,.27,.63,.89,.63h4.81c1.69,0,3.03-1.35,3.03-3.07s-1.34-3.07-3.03-3.07h-5.71Z"/><path class="cls-1" d="M259.02,54.64h1.07v16.32h-1.07v-16.32Z"/><path class="cls-1" d="M264.37,70.97v-16.32h9.63v1.08h-8.56v6.31c.27-.09,.36-.18,.89-.18h7.67v1.08h-7.67c-.71,0-.8,.45-.8,.63v6.4h8.56v1.08h-9.72v-.09Z"/><path class="cls-1" d="M287.19,54.64v16.32h-1.6l-7.67-14.25v14.25h-1.07v-16.32h1.07l8.2,15.24v-15.24h1.07Z"/><path class="cls-1" d="M290.13,64.29h5.62v1.08h-5.62v-1.08Z"/><path class="cls-1" d="M298.6,70.97v-16.32h9.63v1.08h-8.56v6.31c.27-.09,.36-.18,.89-.18h7.67v1.08h-7.67c-.71,0-.8,.45-.8,.63v6.4h8.56v1.08h-9.72v-.09Zm4.72-19.3l-1.34,1.35h-1.52l2.5-2.53h.53l2.5,2.53h-1.52l-1.16-1.35Z"/><path class="cls-1" d="M322.4,55.73h-5.62v15.24h-1.07v-15.24h-5.26v-1.08h11.94v1.08Z"/><path class="cls-1" d="M334.88,70.97l-3.12-7.21c-.36-.9-.89-.81-1.34-.81h-3.65c-.62,0-.8,.36-.8,.63v7.49h-1.07v-16.32h6.6c2.23,0,4.1,1.89,4.1,4.15,0,1.98-1.43,3.52-3.39,3.97,.18,.09,.36,.36,.45,.54l3.3,7.58h-1.07Zm-8.91-9.02c.18-.09,.45-.18,.8-.18h4.81c1.69,0,3.03-1.35,3.03-3.07s-1.34-3.07-3.03-3.07h-5.62v6.31Z"/><path class="cls-1" d="M338.53,70.97v-16.32h9.63v1.08h-8.56v6.31c.27-.09,.36-.18,.89-.18h7.67v1.08h-7.67c-.71,0-.8,.45-.8,.63v6.4h8.56v1.08h-9.72v-.09Z"/></g></svg>